# xmcd
#
# Track frame offsets:
#       182
#       13515
#       31665
#       42832
#       54285
#       66980
#       79577
#       92972
#       103020
#       113057
#       127995
#       145462
#       160920
#       179305
#       196672
#       210242
#       230525
#       246117
#
# Disc length: 3439 seconds
#
# Revision: 2
# Processed by: cddbd v1.5.2PL0 Copyright (c) Steve Scherf et al.
# Submitted via: FreeDbEdit v0.1
#
DISCID=e40d6d12
DTITLE=English Chamber Orchestra - Vivaldi: Bassoon Concerti, Volume 2
DYEAR=1900
DGENRE=
TTITLE0=Concerto No. 4 in C major, RV 474 - Allegro
TTITLE1=Concerto No. 4 in C major, RV 474: Largo
TTITLE2=Concerto No. 4 in C major, RV 474:  Allegro
TTITLE3=Concerto No. 15 in F major, RV 487 - Allegro
TTITLE4=Concerto No. 15 in F major, RV 487:  Largo
TTITLE5=Concerto No. 15 in F major, RV 487:  Allegro
TTITLE6=Concerto No. 31 in C major, RV 476: Allegro
TTITLE7=Concerto No. 31 in C major, RV 476:  Largo
TTITLE8=Concerto No. 31 in C major, RV 476:   Allegro molto
TTITLE9=Concerto No. 16 in C major, RV 469:  Allegro
TTITLE10=Concerto No. 16 in C major, RV 469:  Largo
TTITLE11=Concerto No. 16 in C major, RV 469:  Allegro
TTITLE12=Concerto No. 37 in G major, RV 494 -  Allegro
TTITLE13=Concerto No. 37 in G major, RV 494:  Largo
TTITLE14=Concerto No. 37 in G major, RV 494:  Allegro
TTITLE15=Concerto No. 33 in C major, RV 470:  Allegro
TTITLE16=Concerto No. 33 in C major, RV 470:  Larghetto
TTITLE17=Concerto No. 33 in C major, RV 470:  Allegro
EXTD=MHS 512593T
EXTT0=
EXTT1=
EXTT2=
EXTT3=
EXTT4=
EXTT5=
EXTT6=
EXTT7=
EXTT8=
EXTT9=
EXTT10=
EXTT11=
EXTT12=
EXTT13=
EXTT14=
EXTT15=
EXTT16=
EXTT17=
PLAYORDER=
